<svg xmlns="http://www.w3.org/2000/svg" xmlns:xlink="http://www.w3.org/1999/xlink" width="336" height="320" viewBox="0 0 336 320">
  <defs>
    <style>
      .cls-1 {
        fill: none;
      }

      .cls-2 {
        clip-path: url(#clip-path);
      }

      .cls-3 {
        fill: #020405;
      }

      .cls-4 {
        fill: #0d0c0c;
      }
    </style>
    <clipPath id="clip-path">
      <rect class="cls-1" x="93.82" y="70.75" width="156.79" height="179.5"/>
    </clipPath>
  </defs>
  <g id="Layer_4" data-name="Layer 4">
    <g class="cls-2">
      <g id="Speaker">
        <rect id="Rectangle_976" data-name="Rectangle 976" class="cls-1" x="93.82" y="70.75" width="156.79" height="179.5"/>
        <path id="Path_260" data-name="Path 260" class="cls-3" d="M205.44,76.13V246.66a3.63,3.63,0,0,1-3.13,3.59,4.7,4.7,0,0,1-3.14-1.8l-42.33-46.67H127.05c-1.57,0-1.57,0-3.14-1.79s0-1.8,0-3.59V124.6c0-1.79,0-1.79,1.57-3.59a5.2,5.2,0,0,1,3.14-1.79h29.79l42.33-48.47h3.14C205.44,72.54,205.44,72.54,205.44,76.13Z"/>
      </g>
    </g>
    <rect class="cls-4" x="66.76" y="141.36" width="201.39" height="24" rx="12" transform="translate(-54.25 104.27) rotate(-30)"/>
  </g>
</svg>
