<svg xmlns="http://www.w3.org/2000/svg" xmlns:xlink="http://www.w3.org/1999/xlink" width="336" height="314" viewBox="0 0 336 314">
  <defs>
    <style>
      .cls-1 {
        fill: none;
      }

      .cls-2 {
        clip-path: url(#clip-path);
      }

      .cls-3 {
        fill: #020405;
      }
    </style>
    <clipPath id="clip-path">
      <rect class="cls-1" x="94.21" y="67.5" width="156.79" height="179.5"/>
    </clipPath>
  </defs>
  <g id="Layer_3" data-name="Layer 3">
    <g class="cls-2">
      <g id="Speaker">
        <rect id="Rectangle_976" data-name="Rectangle 976" class="cls-1" x="94.21" y="67.5" width="156.79" height="179.5"/>
        <path id="Path_260" data-name="Path 260" class="cls-3" d="M205.84,72.88V243.41A3.65,3.65,0,0,1,202.7,247a4.72,4.72,0,0,1-3.14-1.8l-42.33-46.67H127.44c-1.56,0-1.56,0-3.13-1.79s0-1.8,0-3.59v-71.8c0-1.79,0-1.79,1.57-3.59A5.15,5.15,0,0,1,129,116H158.8L201.13,67.5h3.14C205.84,69.29,205.84,69.29,205.84,72.88Z"/>
      </g>
    </g>
  </g>
</svg>
