<svg xmlns="http://www.w3.org/2000/svg" xmlns:xlink="http://www.w3.org/1999/xlink" width="128" height="64" viewBox="0 0 128 64">
  <defs>
    <style>
      .cls-1 {
        fill: none;
      }

      .cls-2 {
        fill: #6dbe45;
      }

      .cls-3 {
        fill: #ecf5ea;
      }

      .cls-4 {
        clip-path: url(#clip-path);
      }

      .cls-5 {
        fill: #090d10;
      }
    </style>
    <clipPath id="clip-path">
      <rect class="cls-1" x="0.93" y="10.51" width="63.45" height="42.49"/>
    </clipPath>
  </defs>
  <g id="Layer_1" data-name="Layer 1">
    <circle class="cls-2" cx="34" cy="32" r="32"/>
    <circle class="cls-2" cx="93.84" cy="31.95" r="32"/>
    <rect class="cls-2" x="34" width="60" height="64"/>
    <circle class="cls-3" cx="34" cy="32" r="30"/>
  </g>
  <g id="speaker">
    <g class="cls-4">
      <g id="Speaker-2" data-name="Speaker">
        <rect id="Rectangle_976" data-name="Rectangle 976" class="cls-1" x="0.93" y="10.51" width="63.45" height="42.49"/>
        <path id="Path_260" data-name="Path 260" class="cls-5" d="M46.11,11.77V52.13a1.22,1.22,0,0,1-1.27.85,2.46,2.46,0,0,1-1.27-.42l-17.14-11h-12a1.53,1.53,0,0,1-1.27-.43c-.64-.42,0-.42,0-.84v-17c0-.43,0-.43.63-.85A2.79,2.79,0,0,1,15,22H27.07L44.2,10.51h1.27C46.11,10.94,46.11,10.94,46.11,11.77Z"/>
      </g>
    </g>
  </g>
</svg>
